<svg xmlns="http://www.w3.org/2000/svg" viewBox="0 0 16.13 16.11"><defs><style>.cls-1{fill:#fff;}</style></defs><title>Ресурс 1</title><g id="Слой_2" data-name="Слой 2"><g id="svg4"><path class="cls-1" d="M14.35,0H1.78A1.78,1.78,0,0,0,0,1.77V14.33a1.78,1.78,0,0,0,1.78,1.78H14.35a1.78,1.78,0,0,0,1.78-1.78V1.77A1.78,1.78,0,0,0,14.35,0ZM8.09,5.19c4.16-.31,4.16,6.1,0,5.79C4.23,11,4.23,5.19,8.09,5.19Zm6.26,8.56a.62.62,0,0,1-.62.62H2.45a.62.62,0,0,1-.62-.62V6.83H3.23a5,5,0,1,0,9.72,0h1.4Zm0-9.41a.62.62,0,0,1-.62.62h-1.9a.62.62,0,0,1-.62-.62V2.44a.62.62,0,0,1,.62-.62h1.9a.62.62,0,0,1,.62.62Z"/></g></g></svg>