<svg width="24" height="16" viewBox="0 0 24 16" fill="none" xmlns="http://www.w3.org/2000/svg"><path d="M22.889 4.324H24V2.162h-3.333V0h-2.223v2.162h-3.333v2.162h5.556c-.111.649-.111 1.298-.334 1.946a11.298 11.298 0 0 1-1 2.703c-.222-.108-.333-.324-.444-.432-.556-.757-1.111-1.514-1.556-2.379 0 0 0-.108-.11-.108l-2 .973.11.108.111.108c.778 1.298 1.667 2.595 2.667 3.676-.222.324-.444.54-.667.865-.444.54-1 .973-1.555 1.513-.222.216-.445.433-.778.54-.111.109-.111.109-.333.217-.111.108-.111.108-.334.216l1.223 1.838c.777-.54 1.555-1.081 2.222-1.73.667-.54 1.222-1.189 1.778-1.946.555.433 1.11.865 1.777 1.082.334.216.667.324 1.112.432l.777-2.054-.666-.324c-.556-.325-1.111-.65-1.667-1.082.667-1.08 1.111-2.378 1.444-3.567.223-.757.334-1.73.445-2.595zM4.778 3.244L0 14.053h2.444l.89-2.162H9l1 2.162h2.444L7.667 3.244h-2.89zM4.333 9.73l1.89-4.325L8.11 9.73H4.333z" fill="#000"/></svg>