<svg xmlns="http://www.w3.org/2000/svg" viewBox="0 0 97.8 42.5"><path d="M4.7 22c-.2 0-.4.2-.4.4l-1 8.8 1 8.6c0 .2.2.4.4.4s.4-.2.4-.4l1.1-8.6-1.1-8.8c0-.2-.2-.4-.4-.4zM1.1 25.4c-.2 0-.4.2-.4.4L0 31.2l.7 5.3c0 .2.2.4.4.4s.4-.2.4-.4l.8-5.3-.8-5.4c0-.2-.2-.4-.4-.4zM8.6 20.3c-.3 0-.5.2-.5.5l-.9 10.4.9 10c0 .3.2.5.5.5s.5-.2.5-.5l1-10-1-10.4c-.1-.3-.3-.5-.5-.5zM12.4 19.9c-.3 0-.6.2-.6.6L11 31.2l.9 10.4c0 .3.3.6.6.6s.5-.2.6-.6l1-10.4-1-10.7c-.1-.3-.4-.6-.7-.6zM17 41.7zM17 21.3c0-.4-.3-.6-.7-.6-.4 0-.6.3-.7.6l-.8 9.9.8 10.4c0 .4.3.6.7.6.3 0 .6-.3.7-.6l.9-10.4-.9-9.9zM20.3 14.3c-.4 0-.7.3-.7.7l-.8 16.2.8 10.4c0 .4.3.7.7.7.4 0 .7-.3.7-.7l.9-10.4-.9-16.1c0-.4-.3-.8-.7-.8zM24.2 10.6c-.4 0-.8.4-.8.8l-.7 19.9.7 10.4c0 .5.4.8.8.8s.8-.4.8-.8l.8-10.4-.8-19.9c0-.4-.4-.8-.8-.8zM28.2 8.8c-.5 0-.9.4-.9.9l-.7 21.5.7 10.3c0 .5.4.9.9.9s.9-.4.9-.9l.8-10.3-.8-21.5c0-.5-.4-.9-.9-.9zM33.3 9c0-.6-.5-1-1-1s-1 .4-1 1l-.6 22.2.6 10.2c0 .5.4 1 1 1 .5 0 1-.4 1-1l.7-10.2L33.3 9zM33.3 41.4zM36.3 8.5c-.6 0-1.1.5-1.1 1.1l-.6 21.7.6 10.1c0 .6.5 1.1 1.1 1.1.6 0 1.1-.5 1.1-1.1l.6-10.2-.6-21.6c0-.6-.5-1.1-1.1-1.1zM40.4 9.2c-.6 0-1.1.5-1.2 1.2l-.5 20.9.5 10c0 .6.5 1.1 1.2 1.1.6 0 1.1-.5 1.2-1.2l.6-10-.6-20.9c0-.6-.5-1.1-1.2-1.1zM45.2 5.4c-.2-.1-.4-.2-.7-.2-.2 0-.5.1-.7.2-.3.2-.6.6-.6 1v.2l-.5 24.6.5 10c0 .3.1.5.3.7.2.3.6.4.9.4.3 0 .6-.1.9-.4.2-.2.4-.5.4-.9l.1-1 .5-9-.5-24.6c0-.4-.2-.8-.6-1zM45.8 41.2zM49.3 3c-.2-.1-.4-.2-.7-.2-.3 0-.6.1-.8.3-.3.2-.5.6-.5 1v.1l-.5 27 .3 5 .3 4.9c0 .7.6 1.3 1.3 1.3.7 0 1.3-.6 1.3-1.3l.6-9.8L50 4.1c0-.4-.3-.9-.7-1.1zM85.7 18.4c-1.6 0-3.2.3-4.7.9C80.1 8.5 71.1 0 60 0c-2.7 0-5.4.5-7.7 1.4-.9.4-1.1.7-1.2 1.4V41c0 .7.6 1.3 1.3 1.4h33.3c6.6 0 12-5.3 12-12 .1-6.6-5.3-12-12-12z"/></svg>