<svg xmlns="http://www.w3.org/2000/svg" viewBox="0 0 98.6 58.4"><path d="M60.4.9c2.8.4 5.4 1.1 8.1 1.9 4.6 1.4 9 3.4 13.2 6 .3.2.7.3 1 .3h14.5c.4 0 .8 0 1.2.1v.2c-.2.3-.5.7-.7 1-1.6 2.5-3 5.2-3.9 8.1-.1.3-.1.6.1.9 4.3 6.2 5.7 13 3.9 20.3-1.6 6.4-5.3 11.4-10.9 15-4 2.5-8.4 3.7-13.1 3.8-2 0-4-.3-5.9-.8-4.7-1.2-8.8-3.6-12.1-7.1-.4-.5-.9-1-1.3-1.5-1.8 2.6-3.5 5.2-5.3 7.9-1.8-2.6-3.5-5.2-5.2-7.8-.1.1-.2.1-.2.1l-.1.1c-4 4.8-9.1 7.7-15.3 8.7-3.4.5-6.8.3-10.2-.6-4.7-1.3-8.8-3.8-12-7.5C3 46.3 1.1 42.1.3 37.4c-.8-4.4.2-8.7.4-9.8.7-3 2.1-5.8 3.8-8.3.1-.2.2-.5.1-.7-.7-2.7-2-5.1-3.5-7.4C.9 10.5.4 10 0 9.4v-.2h15.1c.2 0 .5-.1.6-.2 3.5-2.2 7.2-4 11.1-5.4 2.8-1 5.7-1.8 8.6-2.3C38.2.8 41.1.4 44 .2c7.1-.6 12.7.2 16.4.7zm-6.2 32.7c0 10.9 8.8 19.8 19.7 19.7 10.9 0 19.7-8.7 19.7-19.7 0-11.3-9.2-19.9-20.1-19.6-10.8.3-19.2 8.9-19.3 19.6zM24.7 14C14.1 13.9 4.9 22.7 5 34c.2 10.5 8.8 19.4 19.9 19.3 10.8-.1 19.5-8.9 19.5-19.6 0-10.9-8.8-19.7-19.7-19.7zm1-5.2c6 .4 11.2 2.4 15.7 6.5 4.4 4 7 9.1 8 15 1-5.8 3.5-10.8 7.8-14.8 4.4-4 9.5-6.1 15.4-6.5-7-3.1-14.3-4.4-21.9-4.6-8.7-.2-17 1.1-25 4.4z"/><path d="M73.8 21.2c6.7 0 12.2 5.4 12.2 12.1 0 6.8-5.4 12-11.7 12.2-7.1.3-12.7-5.4-12.7-12.2 0-6.8 5.7-12.2 12.2-12.1zm8 12.2c0-4.4-3.6-8-7.9-8-4.4 0-8 3.5-8 7.9s3.6 8 8 8c4.3.1 7.9-3.5 7.9-7.9zM24.4 21.2c6.7 0 12.2 5.4 12.2 12.2 0 6.8-5.4 11.9-11.6 12.2-7.1.3-12.8-5.3-12.8-12.2 0-7 5.7-12.3 12.2-12.2zm8 12.2c0-4.4-3.6-7.9-8-7.9-4.3 0-7.9 3.6-7.9 8s3.6 8 8 8c4.3-.1 7.9-3.7 7.9-8.1z"/><path d="M73.8 29.4c2.2 0 4.1 1.8 4 4 0 2.2-1.8 4-4 4-2.3 0-4.1-1.8-4.1-4 .1-2.3 1.8-4 4.1-4zM24.4 29.3c2.3 0 4.1 1.8 4.1 4.1 0 2.2-1.8 4.1-4.1 4.1s-4.1-1.8-4.1-4.1 1.8-4.1 4.1-4.1z"/></svg>