<svg xmlns="http://www.w3.org/2000/svg" viewBox="0 0 18.11 14.75"><defs><style>.cls-1{fill:#fff;}</style></defs><title>Ресурс 1</title><g id="Слой_2" data-name="Слой 2"><g id="svg4"><path id="svg_1" data-name="svg 1" class="cls-1" d="M18.11,1.76A7.48,7.48,0,0,1,16,2.34,3.74,3.74,0,0,0,17.61.28a7.55,7.55,0,0,1-2.36.91A3.72,3.72,0,0,0,8.92,4.57,10.52,10.52,0,0,1,1.26.69a3.73,3.73,0,0,0,1.15,5A3.75,3.75,0,0,1,.73,5.19v.05a3.72,3.72,0,0,0,3,3.64,3.86,3.86,0,0,1-1,.13A3.94,3.94,0,0,1,2,8.94,3.71,3.71,0,0,0,5.5,11.52,7.43,7.43,0,0,1,.89,13.11,8.46,8.46,0,0,1,0,13.06a10.56,10.56,0,0,0,16.26-8.9c0-.16,0-.32,0-.48A7.47,7.47,0,0,0,18.11,1.76Z"/></g></g></svg>