<svg xmlns="http://www.w3.org/2000/svg" viewBox="0 0 96.5 54.6"><path d="M92.5 44.2c-2.9-3.4-6.3-6.4-9.5-9.5-2.9-2.8-3.1-4.4-.7-7.7 2.5-3.5 5.3-7 7.8-10.5 2.4-3.3 4.8-6.6 6.1-10.5.8-2.5.1-3.6-2.5-4.1-.4-.1-.9-.1-1.4-.1H77c-1.9 0-2.9.8-3.6 2.5-.9 2.3-1.8 4.5-2.9 6.7-2.4 4.9-5.1 9.7-8.9 13.7-.8.9-1.8 2-3.2 1.6-1.8-.6-2.3-3.5-2.2-4.5V4.2c-.3-2.5-.9-3.6-3.4-4.1L36.9 0c-2.1 0-3.2.8-4.3 2.1-.7.8-.9 1.3.5 1.5 2.6.5 4.1 2.2 4.5 4.8.6 4.2.6 8.5.2 12.7-.1 1.2-.3 2.5-.8 3.6-.8 1.8-2 2.2-3.6 1.1-1.5-1-2.5-2.4-3.5-3.9-3.9-5.2-6.9-11-9.4-17.1-.7-1.8-2-2.8-3.8-2.9-4.6-.1-9.2-.1-13.8 0C.2 2-.6 3.3.5 5.8c5 11.1 10.6 21.9 17.8 31.8 3.7 5.1 8 9.5 13.5 12.7 6.3 3.6 13 4.7 20.1 4.3 3.3-.2 4.3-1 4.5-4.3.1-2.3.4-4.5 1.5-6.6 1.1-2 2.8-2.4 4.7-1.1 1 .6 1.8 1.4 2.5 2.3 1.9 2 3.7 4.2 5.6 6.1 2.4 2.5 5.3 3.9 9 3.6h14.1c2.3-.1 3.4-2.9 2.1-5.5-.9-1.8-2.1-3.3-3.4-4.9z"/></svg>