<svg xmlns="http://www.w3.org/2000/svg" viewBox="0 0 11.09 13.86"><defs><style>.cls-1{fill:#fff;}</style></defs><title>Ресурс 2</title><g id="Слой_2" data-name="Слой 2"><g id="vk"><path class="cls-1" d="M11.08,9.62a3.16,3.16,0,0,0-.77-2.24A3.77,3.77,0,0,0,8.26,6.26V6.19A2.94,2.94,0,0,0,9.66,5a3.27,3.27,0,0,0,.51-1.8A3.2,3.2,0,0,0,9.8,1.67,2.65,2.65,0,0,0,8.68.6,4.61,4.61,0,0,0,7.21.11,18.35,18.35,0,0,0,4.89,0H0V13.86H5.55a9.08,9.08,0,0,0,2.38-.25,4.88,4.88,0,0,0,1.72-.88,3.76,3.76,0,0,0,1.05-1.3,4,4,0,0,0,.39-1.82ZM3.46,2.54H5.1a2.15,2.15,0,0,1,.82.17,1,1,0,0,1,.54.51,1.55,1.55,0,0,1,.17.68h0a1.94,1.94,0,0,1-.16.81,1.15,1.15,0,0,1-.57.54,2.08,2.08,0,0,1-.74.19l-1.25,0H3.46Zm3.82,7.91a1.41,1.41,0,0,1-.69.6,2.92,2.92,0,0,1-1.06.24l-1.88,0H3.46V7.85H5.59A2.71,2.71,0,0,1,6.46,8a1.56,1.56,0,0,1,.78.55,1.71,1.71,0,0,1,.26,1A1.85,1.85,0,0,1,7.28,10.45Z"/></g></g></svg>