<svg xmlns="http://www.w3.org/2000/svg" viewBox="0 0 98 63.3"><path d="M98 .1L78.4 0v2.1c1.7 0 5.9.8 7.3 4.3L66.9 49.8c-.9-2.1-9.6-21.5-10.6-24L65.4 7c1.9-2.9 5.5-4.7 8.9-4.8v-2H55.5c0 .5 0 1.5-.1 2.1 5.3.1 7.2 1.3 5.9 4.5-2.1 4.8-6.5 13.8-7.4 15.5-2.7-5.6-4.4-10-7.3-16.1-1.3-2.8 1.5-3.9 4.5-4v-2L29.2 0v2.1c3 0 7 .4 8.6 3 2.1 4.1 9 20.2 11.1 24.5-2.7 5.2-9.2 17.3-11.5 21.9C34 44.2 21.7 14.9 18.2 7.4c-1.3-3.2 3.7-5.1 6.6-5.2V.1L0 0v2.2c4 0 9.9 6.6 11.6 10.7 7.2 16.8 14.7 33.5 21.9 50.3 0 0 2.3.1 2.3 0C40.5 53.5 46 43.4 51 33.6l12.6 29.6h2.1c8-18.2 19.9-46.1 23.8-54.9 1.6-3.8 4.2-6.1 8.5-6.2v-2z"/></svg>