<svg xmlns="http://www.w3.org/2000/svg" viewBox="0 0 76.5 90.7"><path d="M75.2 45.9c-.9-4.1-4.3-7.1-8.3-7.5-9.5-1.1-19.1-1.1-28.7-1.1-9.6 0-19.2 0-28.7 1.1-4 .4-7.3 3.5-8.3 7.5C0 51.7 0 58 0 64s0 12.3 1.3 18.1c.9 4.1 4.3 7.1 8.3 7.5 9.5 1.1 19.1 1.1 28.7 1.1 9.6 0 19.2 0 28.7-1.1 4-.4 7.3-3.5 8.3-7.5 1.3-5.8 1.3-12.1 1.3-18.1-.1-6 0-12.3-1.4-18.1zm-53.4 4.5h-5.5v29.4h-5.1V50.4H5.7v-4.8h16.1v4.8zm14 29.4h-4.6V77c-1.8 2.1-3.6 3.1-5.3 3.1-1.5 0-2.5-.6-3-1.9-.3-.8-.4-2-.4-3.8V54.3h4.6v20.6c.1.7.5 1.1 1.1 1.1.9 0 1.9-.7 2.9-2.2V54.3h4.6l.1 25.5zm17.6-7.6c0 2.4-.2 4.1-.5 5.1-.6 1.9-1.9 2.9-3.7 2.9-1.6 0-3.2-.9-4.8-2.8v2.5h-4.6V45.6h4.6v11.2c1.5-1.8 3.1-2.8 4.8-2.8 1.8 0 3.1 1 3.7 2.9.3 1 .5 2.7.5 5.1v10.2zm17.4-4.3h-9.3v4.5c0 2.4.8 3.5 2.4 3.5 1.1 0 1.8-.6 2.1-1.9 0-.3.1-1.3.1-3.1h4.7v.7c0 1.5-.1 2.5-.1 3-.2 1-.5 2-1.1 2.8-1.3 1.9-3.2 2.8-5.6 2.8-2.4 0-4.3-.9-5.6-2.6-1-1.3-1.5-3.3-1.5-6v-8.9c0-2.7.4-4.7 1.4-6 1.3-1.7 3.2-2.6 5.5-2.6s4.2.9 5.5 2.6c1 1.3 1.4 3.3 1.4 6l.1 5.2z"/><path d="M63.9 58.2c-1.5 0-2.3 1.2-2.3 3.5v2.4h4.6v-2.4c0-2.4-.8-3.5-2.3-3.5zM46.7 58.2c-.8 0-1.5.4-2.3 1.1v15.6c.8.8 1.5 1.1 2.3 1.1 1.3 0 2-1.1 2-3.4v-11c.1-2.3-.6-3.4-2-3.4zM49.3 35c1.7 0 3.5-1 5.3-3.2v2.8h4.7V8.8h-4.7v19.7c-1 1.5-2 2.2-3 2.2-.6 0-1-.4-1.1-1.1-.1-.2-.1-.7-.1-1.8v-19h-4.7v20.4c0 1.8.2 3.1.4 3.8.7 1.4 1.7 2 3.2 2zM16.8 20.6v14H22v-14L28.2 0H23l-3.5 13.6L15.7 0h-5.5l3.3 9.6c1.8 4.9 2.8 8.5 3.3 11zM35.2 35c2.3 0 4.2-.9 5.5-2.6 1-1.3 1.5-3.3 1.5-6.1v-9c0-2.8-.5-4.8-1.5-6.1-1.3-1.8-3.1-2.6-5.5-2.6-2.3 0-4.1.9-5.4 2.6-1 1.3-1.5 3.3-1.5 6.1v9c0 2.7.5 4.8 1.5 6.1 1.2 1.7 3 2.6 5.4 2.6zm-2.3-18.7c0-2.4.7-3.6 2.2-3.6s2.2 1.2 2.2 3.6v10.9c0 2.4-.7 3.6-2.2 3.6s-2.2-1.2-2.2-3.6V16.3z"/></svg>