<svg version="1" xmlns="http://www.w3.org/2000/svg" width="682.667" height="682.667" viewBox="0 0 512.000000 512.000000"><path d="M0 256v256h512V0H0v256zm374.3-117.2L492 256.5 374.7 373.8C310.2 438.2 256.7 491 255.9 491c-.7 0-54.2-52.8-118.6-117.2L20 256.5l117.7-117.7C202.5 74 255.7 21 256 21c.3 0 53.5 53 118.3 117.8z"/><path d="M226.7 77.8L198 106.5l9.5 9.5 9.5 9.5 19.3-19.3C246.9 95.7 256 87 256.5 87c.6 0 9.6 8.5 20 19l19 19 9.2-9.2 9.3-9.3-28.7-28.7C269.5 61.9 256.3 49 256 49c-.3 0-13.5 12.9-29.3 28.8z"/><path d="M241.7 120.8c-7.5 7.5-13.7 14.2-13.7 14.7 0 .6 6.3 7.3 14 15l14 14 14.7-14.8 14.8-14.7-14-14c-7.7-7.7-14.4-14-15-14-.6 0-7.2 6.2-14.8 13.8zM152 152.5L119.5 185l9.5 9.5 9.5 9.5 32.5-32.5 32.5-32.5-9.5-9.5-9.5-9.5-32.5 32.5zM318.2 129.3l-9.2 9.2 32.5 32.5 32.5 32.5 9.2-9.3 9.3-9.2-32.5-32.5-32.5-32.5-9.3 9.3zM284.7 163.8L270 178.5l32.3 32.3 32.2 32.2 14.8-14.8 14.7-14.7-32.3-32.3-32.2-32.2-14.8 14.8zM180.5 182l-32 32 14.5 14.5 14.5 14.5 32.5-32.5 32.5-32.5-14-14c-7.7-7.7-14.4-14-15-14-.6 0-15.4 14.4-33 32zM224 224.5L191.5 257l32.3 32.2 32.2 32.3 32.5-32.5 32.5-32.5-32.3-32.3-32.2-32.2-32.5 32.5zM76 227.5L47.5 256l29.2 29.2 29.3 29.3 9-9c4.9-4.9 9-9.4 9-10 0-.6-8.6-9.6-19-20l-19-19 19.2-19.2 19.3-19.3-9.5-9.5c-5.2-5.2-9.7-9.5-10-9.5-.3 0-13.3 12.8-29 28.5zM397.2 208.3l-9.2 9.2 19.5 19.5 19.5 19.5-19.7 19.7-19.8 19.8 9.3 9.2 9.2 9.3 29.2-29.3 29.3-29.2-22.5-22.6c-12.4-12.4-25.5-25.2-29.1-28.4l-6.5-5.9-9.2 9.2z"/><path d="M120.2 242.3L106 256.5l14.5 14.5 14.5 14.5 14.2-14.3 14.3-14.2-14.5-14.5-14.5-14.5-14.3 14.3zM363 242.5L348.5 257l14.5 14.5 14.5 14.5 14.7-14.7 14.8-14.8-14.2-14.2c-7.9-7.9-14.5-14.3-14.8-14.3-.3 0-7 6.5-15 14.5zM163.2 285.3L149 299.5l32.3 32.3 32.2 32.2 14.3-14.3 14.2-14.2-32.3-32.3-32.2-32.2-14.3 14.3zM302.2 303.3L270 335.5l14.5 14.5 14.5 14.5 32.5-32.5 32.5-32.5-14.2-14.2c-7.9-7.9-14.5-14.3-14.8-14.3-.3 0-15 14.5-32.8 32.3zM129 318.5l-9.5 9.5 32.5 32.5 32.5 32.5 9.5-9.5 9.5-9.5-32.5-32.5-32.5-32.5-9.5 9.5zM341.2 342.3L309 374.5l9.3 9.3 9.2 9.2 32.5-32.5 32.5-32.5-9-9c-4.9-4.9-9.2-9-9.5-9-.3 0-15 14.5-32.8 32.3zM241.5 364l-14 14 14.5 14.5 14.5 14.5 14.2-14.2 14.3-14.3-14.2-14.2c-7.9-7.9-14.5-14.3-14.8-14.3-.3 0-6.8 6.3-14.5 14z"/><path d="M208 397.5l-9.5 9.5 28.8 28.8 28.7 28.7 28.7-28.7 28.8-28.8-9.3-9.2-9.2-9.3-19.2 19.3-19.3 19.2-19.5-19.5-19.5-19.5-9.5 9.5z"/></svg>